<?xml version="1.0" encoding="UTF-8"?> <svg xmlns="http://www.w3.org/2000/svg" width="50" height="50" viewBox="0 0 50 50" fill="none"><path d="M34.7754 3.52113H26.713V0H38.2691C39.7741 2.25352 38.3587 4.69484 37.4629 5.6338L33.7004 9.15493L25.1006 16.9014V50H13.007V16.9014H14.6194V45.7746H23.4881V16.1972C23.4881 15.0704 23.8464 14.3192 24.0256 14.0845L34.7754 3.52113Z" fill="black"></path><path d="M0.375913 26.7606H13.007V30.2817V33.8028V37.3239V40.8451V44.3662H0.913406C0.0534115 42.6761 0.196746 41.3146 0.375913 40.8451H13.007V37.3239H0.913406C0.0534115 35.6338 0.196746 34.2723 0.375913 33.8028H13.007V30.2817H0.913406C-0.48015 27.7952 0.375913 26.7606 0.375913 26.7606Z" fill="black"></path><path d="M25.1006 19.7183H34.7754L46.3315 9.15493H33.9692L37.7316 5.6338H49.2877C49.8252 6.10329 50.5777 7.74648 49.2877 10.5634L34.7754 23.2394H25.1006V26.7606H34.7754L48.4815 14.0845V15.493L48.7502 16.1972V17.6056L34.7754 30.2817H25.1006V33.8028H34.7754L48.4815 21.1268V22.5352L48.7502 23.2394V24.6479L34.7754 37.3239H25.1006V40.8451H34.7754L48.4815 28.169V29.5775L48.7502 30.2817V31.6901L34.7754 44.3662H25.1006V40.8451V37.3239V33.8028V30.2817V26.7606V23.2394V19.7183Z" fill="black"></path><path d="M26.713 3.52113V0L21.6069 4.92958H15.4257L2.79461 16.1972L0.375891 18.3099L0.107154 19.0141C-0.32284 22.3944 0.644647 23.2394 1.18214 23.2394H13.007V19.0141H4.13835L15.4257 9.15493H18.3819L13.5445 14.0845C13.1145 14.6479 13.007 16.1972 13.007 16.9014H14.6194L26.713 3.52113Z" fill="black"></path><path d="M22.7931 33.375C22.7931 38.7144 21.132 43.0432 19.083 43.0432C17.034 43.0432 15.373 38.7144 15.373 33.375C15.373 28.0353 17.034 23.7068 19.083 23.7068C21.132 23.7068 22.7931 28.0353 22.7931 33.375Z" fill="#554BCC"></path><path d="M19.9615 33.3705C19.8102 33.185 19.6505 33.0174 19.4949 32.8672C18.9611 32.3376 18.1499 32.1786 18.0826 30.4746C18.0154 28.7704 19.041 28.2229 19.7135 28.797C19.7135 28.797 19.3479 29.5828 19.7472 30.086C20.1591 30.5894 20.4281 29.4857 20.2263 28.9558C19.7093 27.5785 18.3138 28.2143 17.843 29.5827C17.4185 30.8101 17.4774 32.4611 18.2045 33.3705C18.3558 33.5559 18.5156 33.7237 18.6711 33.874C19.2049 34.4035 20.0161 34.5625 20.0834 36.2664C20.1506 37.9705 19.125 38.5181 18.4525 37.944C18.4525 37.944 18.8182 37.1585 18.4189 36.655C18.007 36.1517 17.738 37.2555 17.9397 37.785C18.4609 39.1536 19.8522 38.5267 20.323 37.1585C20.7476 35.9311 20.6886 34.28 19.9615 33.3705Z" fill="black"></path><path d="M19.3815 27.4197H19.1797V39.3304H19.3815V27.4197Z" fill="black"></path><path d="M18.9821 27.4197H18.7804V39.3304H18.9821V27.4197Z" fill="black"></path></svg> 